<svg xmlns="http://www.w3.org/2000/svg" width="441" height="104" fill="none" viewBox="0 0 441 104">
    <path fill="#ECF5FC" d="M437 94.958v-.504c0-5-2.754-9.795-7.658-13.333-4.904-3.538-11.557-5.53-18.498-5.538h-1.654c2.438-3.097 3.707-6.6 3.681-10.16-.026-3.56-1.346-7.053-3.829-10.131-2.483-3.079-6.042-5.635-10.323-7.415-4.28-1.78-9.134-2.721-14.076-2.73-1.497-.003-2.991.08-4.469.246 1.514-4.372 1.306-8.962-.601-13.253-1.907-4.292-5.438-8.116-10.196-11.042-4.757-2.927-10.554-4.84-16.738-5.525-6.183-.684-12.51-.114-18.269 1.648-3.23-5.883-9.204-10.773-16.895-13.83C309.785.334 300.856-.7 292.223.468c-8.633 1.167-16.433 4.463-22.061 9.32-5.627 4.859-8.731 10.976-8.779 17.303-4.247-3.613-10.091-6.063-16.55-6.939-6.458-.876-13.139-.125-18.92 2.128-5.78 2.252-10.309 5.868-12.826 10.241-2.516 4.373-2.867 9.236-.993 13.773-3.24-4.266-8.544-7.526-14.905-9.158-6.36-1.632-13.331-1.523-19.587.307-6.255 1.83-11.358 5.253-14.336 9.617-2.979 4.364-3.625 9.365-1.817 14.05-4.082.15-8.009 1.177-11.272 2.95-3.263 1.772-5.714 4.21-7.034 6.995-3.958-4.584-10.198-7.906-17.444-9.286-7.246-1.38-14.951-.714-21.537 1.863-.119-4.18-2.165-8.21-5.815-11.46-3.65-3.248-8.698-5.53-14.347-6.485-5.65-.955-11.58-.53-16.856 1.21-5.276 1.74-9.599 4.695-12.286 8.399-3.987-2.25-8.772-3.646-13.808-4.03-5.036-.385-10.12.258-14.673 1.856-4.553 1.598-8.39 4.085-11.074 7.178-2.684 3.094-4.106 6.668-4.104 10.316-.003.68.047 1.361.15 2.038-2.717.979-5.098 2.38-6.972 4.1C2.503 78.477 1.182 80.476.51 82.61c-.673 2.133-.68 4.347-.022 6.482.659 2.136 1.967 4.14 3.83 5.867H437z"/>
    <path fill="#fff" d="M440.779 104v-.509c0-5.042-2.778-9.879-7.724-13.447-4.946-3.57-11.657-5.578-18.658-5.587h-1.668c2.459-3.124 3.739-6.657 3.713-10.247-.027-3.591-1.358-7.114-3.863-10.22-2.504-3.105-6.093-5.683-10.411-7.478s-9.213-2.745-14.199-2.754c-1.509-.003-3.016.08-4.507.249 1.527-4.41 1.318-9.04-.606-13.369-1.924-4.329-5.485-8.185-10.284-11.137s-10.645-4.881-16.883-5.572c-6.237-.69-12.618-.115-18.427 1.662-3.258-5.935-9.283-10.867-17.041-13.95-7.757-3.084-16.763-4.126-25.471-2.948-8.708 1.177-16.575 4.501-22.251 9.401-5.676 4.9-8.807 11.07-8.856 17.452-4.283-3.644-10.178-6.115-16.692-6.999-6.515-.883-13.253-.126-19.084 2.146-5.831 2.272-10.399 5.92-12.937 10.33-2.538 4.41-2.892 9.316-1.002 13.893-3.267-4.304-8.618-7.592-15.033-9.238-6.415-1.646-13.447-1.536-19.757.31-6.309 1.846-11.456 5.298-14.46 9.7-3.005 4.402-3.657 9.446-1.832 14.171-4.118.15-8.078 1.187-11.37 2.975s-5.763 4.246-7.095 7.057c-3.992-4.624-10.286-7.975-17.595-9.367-7.309-1.392-15.08-.72-21.724 1.879-.119-4.215-2.183-8.281-5.865-11.558-3.682-3.277-8.773-5.579-14.47-6.542-5.699-.963-11.68-.534-17.002 1.22-5.322 1.755-9.682 4.735-12.393 8.471-4.021-2.268-8.847-3.677-13.927-4.065-5.08-.387-10.208.262-14.8 1.873-4.593 1.611-8.463 4.12-11.17 7.24-2.707 3.12-4.141 6.726-4.139 10.405-.003.687.047 1.373.15 2.056-2.74.987-5.14 2.4-7.031 4.136-1.89 1.737-3.223 3.753-3.9 5.905-.68 2.151-.686 4.385-.022 6.538.664 2.154 1.983 4.175 3.862 5.918h436.424z"/>
</svg>
