<svg xmlns="http://www.w3.org/2000/svg" width="400" height="105" fill="none" viewBox="0 0 400 105">
    <path fill="#ECF5FC" d="M8.383 93v-.494c0-4.896 2.465-9.592 6.855-13.057 4.39-3.465 10.344-5.416 16.557-5.425h1.48c-2.181-3.033-3.317-6.463-3.294-9.95.023-3.487 1.205-6.908 3.427-9.922 2.223-3.015 5.408-5.519 9.24-7.262 3.831-1.743 8.176-2.665 12.6-2.674 1.34-.003 2.677.078 4 .241-1.356-4.282-1.17-8.777.538-12.98 1.707-4.203 4.867-7.948 9.126-10.814 4.259-2.866 9.447-4.74 14.982-5.41 5.535-.671 11.198-.113 16.353 1.613 2.892-5.762 8.239-10.551 15.123-13.545C122.254.327 130.245-.685 137.973.458c7.728 1.144 14.71 4.371 19.747 9.129 5.037 4.758 7.816 10.75 7.858 16.945 3.802-3.538 9.033-5.937 14.814-6.795 5.781-.858 11.761-.122 16.935 2.083 5.175 2.206 9.228 5.748 11.481 10.03 2.252 4.283 2.566 9.046.889 13.49 2.9-4.179 7.648-7.371 13.341-8.97 5.693-1.598 11.933-1.49 17.533.301 5.599 1.793 10.166 5.145 12.832 9.419 2.667 4.274 3.245 9.172 1.626 13.76 3.654.146 7.169 1.152 10.09 2.889 2.921 1.736 5.114 4.123 6.296 6.851 3.543-4.49 9.129-7.743 15.615-9.094 6.486-1.352 13.382-.7 19.278 1.823.106-4.092 1.937-8.04 5.205-11.222 3.267-3.182 7.785-5.417 12.842-6.352 5.056-.935 10.364-.518 15.087 1.185 4.723 1.704 8.592 4.598 10.998 8.225 3.568-2.203 7.851-3.57 12.359-3.947 4.508-.376 9.059.254 13.134 1.819 4.076 1.564 7.51 4 9.913 7.03 2.402 3.03 3.675 6.53 3.673 10.102.003.667-.042 1.334-.134 1.997 2.432.959 4.563 2.33 6.24 4.016 1.678 1.686 2.86 3.644 3.462 5.733.602 2.09.608 4.258.019 6.35-.59 2.09-1.76 4.053-3.427 5.745H8.383z"/>
    <path fill="#fff" d="M.785 105v-.497c0-4.93 2.498-9.659 6.947-13.148 4.448-3.489 10.483-5.453 16.779-5.461h1.5c-2.211-3.054-3.362-6.509-3.339-10.02.024-3.51 1.221-6.954 3.473-9.99 2.252-3.035 5.48-5.556 9.364-7.311 3.883-1.755 8.285-2.684 12.769-2.693 1.357-.002 2.712.08 4.053.243-1.374-4.311-1.185-8.837.545-13.07 1.73-4.231 4.933-8.002 9.248-10.888 4.316-2.885 9.574-4.772 15.183-5.447 5.61-.675 11.348-.113 16.572 1.624 2.93-5.801 8.349-10.623 15.325-13.638 6.976-3.014 15.075-4.033 22.906-2.882 7.832 1.151 14.907 4.401 20.011 9.192 5.105 4.79 7.921 10.823 7.964 17.061 3.853-3.562 9.153-5.978 15.012-6.842 5.859-.864 11.918-.123 17.162 2.098 5.244 2.22 9.352 5.787 11.634 10.099 2.283 4.312 2.601 9.108.901 13.582 2.939-4.207 7.751-7.422 13.52-9.03 5.769-1.61 12.093-1.502 17.767.302 5.674 1.805 10.303 5.18 13.005 9.483 2.702 4.304 3.288 9.235 1.647 13.855 3.703.147 7.265 1.16 10.225 2.908 2.961 1.749 5.183 4.152 6.381 6.9 3.59-4.522 9.251-7.797 15.823-9.158 6.573-1.36 13.562-.704 19.537 1.836.107-4.12 1.963-8.096 5.274-11.3 3.311-3.203 7.89-5.453 13.014-6.395 5.124-.942 10.503-.522 15.289 1.194 4.786 1.715 8.707 4.629 11.145 8.281 3.617-2.218 7.957-3.595 12.525-3.974 4.568-.379 9.181.255 13.31 1.83 4.13 1.576 7.611 4.03 10.045 7.08 2.435 3.05 3.724 6.575 3.723 10.171.002.672-.043 1.343-.136 2.01 2.464.966 4.624 2.347 6.324 4.044 1.7 1.698 2.898 3.67 3.508 5.773.61 2.103.616 4.287.019 6.392-.597 2.106-1.783 4.082-3.473 5.786H.785z"/>
</svg>
